<?xml version="1.0" encoding="UTF-8" standalone="no"?>
<svg width="672" height="170" viewBox="0 0 672 170" fill="none" xmlns="http://www.w3.org/2000/svg">
  <!-- Fundo Transparente -->
  <rect width="672" height="170" fill="none"/>
  
  <!-- Cavalo Mecânico -->
  <g>
    <!-- Cabine -->
    <rect x="34" y="90" width="90" height="50" rx="6" fill="#0765ad" stroke="#000000" stroke-width="2" />
    <rect x="94" y="90" width="30" height="50" rx="0" fill="#054e85" stroke="#000000" stroke-width="2" />
    
    <!-- Parte frontal -->
    <rect x="24" y="105" width="10" height="20" rx="1" fill="#054e85" stroke="#000000" stroke-width="2" />
    
    <!-- Detalhes da cabine -->
    <rect x="44" y="100" width="40" height="25" rx="2" fill="#82b4e8" stroke="#000000" stroke-width="1" />
    
    <!-- Para-choque -->
    <rect x="20" y="130" width="15" height="5" rx="1" fill="#d0d0d0" stroke="#000000" stroke-width="1" />
    
    <!-- Rodas do cavalo -->
    <circle cx="65" cy="140" r="12" fill="#333333" stroke="#000000" stroke-width="2" />
    <circle cx="65" cy="140" r="5" fill="#666666" stroke="#000000" stroke-width="1" />
    
    <circle cx="110" cy="140" r="12" fill="#333333" stroke="#000000" stroke-width="2" />
    <circle cx="110" cy="140" r="5" fill="#666666" stroke="#000000" stroke-width="1" />
  </g>
  
  <!-- Prancha (Flatbed) -->
  <g>
    <!-- Conexão com o cavalo mecânico -->
    <rect x="124" y="105" width="30" height="15" rx="0" fill="#0e5176" stroke="#000000" stroke-width="2" />

    <!-- Estrutura da prancha (plataforma) -->
    <rect x="154" y="95" width="480" height="10" rx="0" fill="#d56a00" stroke="#000000" stroke-width="2" />
    
    <!-- Suporte inferior -->
    <rect x="154" y="105" width="480" height="10" rx="0" fill="#0e5176" stroke="#000000" stroke-width="2" />
    
    <!-- Suportes verticais -->
    <line x1="190" y1="105" x2="190" y2="130" stroke="#0e5176" stroke-width="8" />
    <line x1="250" y1="105" x2="250" y2="130" stroke="#0e5176" stroke-width="8" />
    <line x1="310" y1="105" x2="310" y2="130" stroke="#0e5176" stroke-width="8" />
    <line x1="370" y1="105" x2="370" y2="130" stroke="#0e5176" stroke-width="8" />
    <line x1="430" y1="105" x2="430" y2="130" stroke="#0e5176" stroke-width="8" />
    <line x1="490" y1="105" x2="490" y2="130" stroke="#0e5176" stroke-width="8" />
    <line x1="550" y1="105" x2="550" y2="130" stroke="#0e5176" stroke-width="8" />
    <line x1="610" y1="105" x2="610" y2="130" stroke="#0e5176" stroke-width="8" />
    
    <!-- Eixos da prancha -->
    <rect x="154" y="130" width="480" height="5" rx="0" fill="#333333" stroke="#000000" stroke-width="1" />

    <!-- Rodas da prancha -->
    <circle cx="190" cy="140" r="12" fill="#333333" stroke="#000000" stroke-width="2" />
    <circle cx="190" cy="140" r="5" fill="#666666" stroke="#000000" stroke-width="1" />
    
    <circle cx="250" cy="140" r="12" fill="#333333" stroke="#000000" stroke-width="2" />
    <circle cx="250" cy="140" r="5" fill="#666666" stroke="#000000" stroke-width="1" />
    
    <circle cx="430" cy="140" r="12" fill="#333333" stroke="#000000" stroke-width="2" />
    <circle cx="430" cy="140" r="5" fill="#666666" stroke="#000000" stroke-width="1" />
    
    <circle cx="490" cy="140" r="12" fill="#333333" stroke="#000000" stroke-width="2" />
    <circle cx="490" cy="140" r="5" fill="#666666" stroke="#000000" stroke-width="1" />
    
    <circle cx="550" cy="140" r="12" fill="#333333" stroke="#000000" stroke-width="2" />
    <circle cx="550" cy="140" r="5" fill="#666666" stroke="#000000" stroke-width="1" />
    
    <circle cx="610" cy="140" r="12" fill="#333333" stroke="#000000" stroke-width="2" />
    <circle cx="610" cy="140" r="5" fill="#666666" stroke="#000000" stroke-width="1" />
  </g>
  
  <!-- Carga na prancha -->
  <g>
    <!-- Máquina pesada -->
    <rect x="250" y="50" width="240" height="45" rx="5" fill="#ffbb00" stroke="#000000" stroke-width="2" />
    
    <!-- Cabine da máquina -->
    <rect x="430" y="30" width="50" height="20" rx="3" fill="#ffbb00" stroke="#000000" stroke-width="2" />
    
    <!-- Esteiras da máquina -->
    <rect x="270" y="75" width="40" height="20" rx="4" fill="#333333" stroke="#000000" stroke-width="2" />
    <rect x="430" y="75" width="40" height="20" rx="4" fill="#333333" stroke="#000000" stroke-width="2" />
    
    <!-- Braço hidráulico -->
    <rect x="350" y="30" width="15" height="40" rx="0" fill="#ffcc00" stroke="#000000" stroke-width="2" />
    <rect x="350" y="20" width="70" height="15" rx="0" fill="#ffcc00" stroke="#000000" stroke-width="2" />
  </g>
</svg>