<?xml version="1.0" encoding="UTF-8" standalone="no"?>
<svg width="240" height="60" viewBox="0 0 240 60" fill="none" xmlns="http://www.w3.org/2000/svg">
  <!-- Tractor Unit (Truck Cab) -->
  <g>
    <rect x="10" y="35" width="40" height="15" rx="2" fill="#b0b0b0" stroke="#333" stroke-width="1" />
    <rect x="20" y="25" width="30" height="10" rx="2" fill="#d0d0d0" stroke="#333" stroke-width="1" />
    <!-- Truck Window -->
    <rect x="30" y="27" width="15" height="6" rx="1" fill="#a0d0ff" stroke="#333" stroke-width="0.5" />
    <!-- Wheels -->
    <circle cx="20" cy="50" r="6" fill="#333" />
    <circle cx="45" cy="50" r="6" fill="#333" />
  </g>
  
  <!-- Flatbed Trailer -->
  <g>
    <!-- Trailer Connection -->
    <rect x="50" y="37" width="10" height="3" fill="#777" stroke="#333" stroke-width="0.5" />
    
    <!-- Flatbed Platform -->
    <rect x="60" y="30" width="160" height="5" fill="#b04000" stroke="#333" stroke-width="1" />
    
    <!-- Support Structure -->
    <rect x="60" y="35" width="160" height="2" fill="#777" stroke="#333" stroke-width="0.5" />
    <line x1="70" y1="37" x2="70" y2="45" stroke="#777" stroke-width="2" />
    <line x1="90" y1="37" x2="90" y2="45" stroke="#777" stroke-width="2" />
    <line x1="110" y1="37" x2="110" y2="45" stroke="#777" stroke-width="2" />
    <line x1="130" y1="37" x2="130" y2="45" stroke="#777" stroke-width="2" />
    <line x1="150" y1="37" x2="150" y2="45" stroke="#777" stroke-width="2" />
    <line x1="170" y1="37" x2="170" y2="45" stroke="#777" stroke-width="2" />
    <line x1="190" y1="37" x2="190" y2="45" stroke="#777" stroke-width="2" />
    <line x1="210" y1="37" x2="210" y2="45" stroke="#777" stroke-width="2" />
    
    <!-- Trailer Base -->
    <rect x="60" y="45" width="160" height="3" fill="#555" stroke="#333" stroke-width="0.5" />
    
    <!-- Wheels -->
    <circle cx="80" cy="50" r="6" fill="#333" />
    <circle cx="100" cy="50" r="6" fill="#333" />
    <circle cx="180" cy="50" r="6" fill="#333" />
    <circle cx="200" cy="50" r="6" fill="#333" />
  </g>
  
  <!-- Cargo Example -->
  <g>
    <!-- Heavy Equipment on Flatbed -->
    <rect x="100" y="15" width="80" height="15" rx="2" fill="#ffcc00" stroke="#333" stroke-width="1" />
    <rect x="110" y="10" width="60" height="5" fill="#ffcc00" stroke="#333" stroke-width="1" />
    <rect x="130" y="5" width="20" height="5" fill="#ffcc00" stroke="#333" stroke-width="1" />
    <circle cx="115" cy="30" r="4" fill="#333" />
    <circle cx="165" cy="30" r="4" fill="#333" />
    <!-- Tracks -->
    <rect x="110" y="26" width="10" height="4" rx="1" fill="#333" />
    <rect x="160" y="26" width="10" height="4" rx="1" fill="#333" />
  </g>
</svg>